<?xml version="1.0" encoding="utf-8"?>
<!-- Generator: Adobe Illustrator 19.0.0, SVG Export Plug-In . SVG Version: 6.00 Build 0)  -->
<svg version="1.1" id="Layer_1" xmlns="http://www.w3.org/2000/svg" xmlns:xlink="http://www.w3.org/1999/xlink" x="0px" y="0px"
	 viewBox="-260 352 90 90" style="enable-background:new -260 352 90 90;" xml:space="preserve">
<style type="text/css">
	.st0{fill:#FFFFFF;}
</style>
<path class="st0" d="M-170.1,384.6l-10-10l-31.5,31.4l-12.4-12.4l31.4-31.5l-10-10h32.6v32.5H-170.1z M-170.1,397v20
	c0,14-11,25-25,25h-40c-14,0-25-11-25-25v-40c0-14,11-25,25-25h20v13h-20c-7,0-12,5-12,12v40c0,7,5,12,12,12h40c7,0,12-5,12-12v-20
	H-170.1z"/>
</svg>
