<?xml version="1.0" encoding="utf-8"?>
<svg version="1.1" xmlns="http://www.w3.org/2000/svg" xmlns:xlink="http://www.w3.org/1999/xlink" x="0px" y="0px"
	 viewBox="0 0 79.6 78.9" style="fill: black; enable-background:new 0 0 79.6 78.9;" xml:space="preserve">
<g transform="matrix(-2.32182,-7.51649e-16,-8.59027e-16,2.32182,133.428,-32.0182)">
	<path d="M31.7,16.1c-0.1,0-0.1,0-0.2,0.1c-0.1,0.1-0.2,0.1-0.3,0.2c-0.7,0.4-1.4,0.9-2,1.5c-0.7,0.6-1.3,1.2-1.8,1.8l-0.1,0.1
		c0,0.1-0.1,0.1-0.1,0.1c-0.1,0.2-0.1,0.3,0,0.5c0,0.1,0,0.1,0.1,0.1l1.8,2.2c0,0-0.1,0.1-0.1,0.1C29,22.9,29,22.9,28.9,23
		c-0.2,0.4-0.5,0.7-0.7,1.1c-0.2,0.4-0.4,0.8-0.6,1.3l0,0l-2.8-0.5l-0.1,0c-0.1,0-0.1,0-0.2,0c-0.1,0-0.3,0.1-0.3,0.2
		c0,0.1,0,0.1-0.1,0.1c0,0.1-0.1,0.2-0.1,0.3c-0.3,0.8-0.5,1.6-0.6,2.4c-0.1,0.8-0.2,1.7-0.2,2.6l0,0.1c0,0.1,0,0.1,0,0.2
		c0,0.2,0.2,0.3,0.3,0.4c0.1,0,0.1,0,0.2,0.1l2.8,0.5c0,0.1,0,0.1,0,0.2c0,0.1,0,0.1,0,0.3c0,0.5,0.1,0.9,0.2,1.4
		c0.1,0.4,0.2,0.8,0.3,1.2l0,0l-2.5,1.4l-0.1,0c-0.1,0-0.1,0.1-0.1,0.1c-0.1,0.1-0.1,0.3-0.1,0.4c0,0.1,0,0.1,0,0.2
		c0,0.1,0.1,0.2,0.1,0.3c0.3,0.8,0.7,1.5,1.1,2.2c0.4,0.7,0.9,1.5,1.5,2.1l0.1,0.1c0,0.1,0.1,0.1,0.1,0.1c0.1,0.1,0.3,0.1,0.5,0.1
		c0.1,0,0.1,0,0.2-0.1l2.5-1.4c0,0,0.1,0.1,0.1,0.1c0.1,0.1,0.1,0.1,0.2,0.2c0.3,0.3,0.6,0.6,1,0.9c0.4,0.3,0.7,0.6,1.1,0.8l0,0
		l-1,2.7l0,0.1c0,0.1,0,0.1,0,0.2c0,0.1,0.1,0.3,0.2,0.4c0.1,0.1,0.1,0.1,0.1,0.1c0.1,0.1,0.2,0.1,0.3,0.2c0.8,0.4,1.5,0.8,2.4,1
		c0.8,0.3,1.6,0.5,2.4,0.7l0.1,0c0.1,0,0.1,0,0.2,0c0.2,0,0.3-0.1,0.4-0.2c0-0.1,0-0.1,0.1-0.1l1-2.7c0.1,0,0.1,0,0.2,0
		c0.1,0,0.1,0,0.3,0c0.4,0,0.9,0.1,1.3,0c0.5,0,0.9,0,1.4-0.1l0,0l1,2.7l0,0.1c0,0.1,0,0.1,0.1,0.1c0.1,0.1,0.2,0.2,0.4,0.2
		c0.1,0,0.1,0,0.2,0c0.1,0,0.2,0,0.3-0.1c0.8-0.2,1.6-0.4,2.4-0.7c0.8-0.3,1.6-0.7,2.3-1.1l0.1,0c0.1,0,0.1,0,0.1-0.1
		c0.1-0.1,0.2-0.3,0.2-0.5c0-0.1,0-0.1,0-0.2l-1-2.7c0,0,0.1-0.1,0.1-0.1c0.1-0.1,0.1-0.1,0.2-0.1c0.4-0.3,0.8-0.6,1.1-0.9
		c0.3-0.3,0.6-0.6,0.9-0.9l0,0l2.5,1.4l0.1,0c0.1,0,0.1,0,0.2,0c0.1,0,0.3,0,0.4-0.1c0.1,0,0.1-0.1,0.1-0.1c0.1-0.1,0.1-0.2,0.2-0.3
		c0.5-0.7,1-1.4,1.4-2.1c0.4-0.7,0.8-1.5,1.1-2.3l0-0.1c0-0.1,0-0.1,0-0.2c0-0.2,0-0.3-0.2-0.5c-0.1-0.1-0.1-0.1-0.1-0.1l-2.5-1.4
		c0-0.1,0-0.1,0-0.2c0-0.1,0-0.1,0.1-0.2c0.1-0.4,0.2-0.8,0.3-1.3c0.1-0.5,0.1-0.9,0.2-1.4l0,0l2.8-0.5l0.1,0c0.1,0,0.1,0,0.1-0.1
		c0.1-0.1,0.2-0.2,0.2-0.3c0-0.1,0-0.1,0-0.2c0-0.1,0-0.2,0-0.3c0-0.9-0.1-1.7-0.3-2.6c-0.2-0.8-0.4-1.6-0.6-2.4l0-0.1
		c0-0.1,0-0.1-0.1-0.1c-0.1-0.1-0.2-0.2-0.4-0.2c-0.1,0-0.1,0-0.2,0L53,25.4c0-0.1,0-0.1-0.1-0.2c-0.1-0.1-0.1-0.1-0.1-0.2
		c-0.2-0.4-0.4-0.8-0.7-1.2c-0.2-0.4-0.5-0.7-0.7-1.1l0,0l1.8-2.2l0-0.1c0-0.1,0-0.1,0.1-0.2c0-0.1,0-0.3,0-0.4c0-0.1,0-0.1-0.1-0.1
		c-0.1-0.1-0.2-0.2-0.2-0.3c-0.6-0.6-1.2-1.2-1.8-1.7c-0.7-0.5-1.4-1-2.1-1.5l-0.1,0c-0.1,0-0.1,0-0.2-0.1c-0.2,0-0.3,0-0.5,0.1
		c-0.1,0-0.1,0.1-0.1,0.1l-1.8,2.2c0,0-0.1,0-0.1-0.1c-0.1-0.1-0.1-0.1-0.2-0.1c-0.4-0.2-0.8-0.3-1.2-0.5c-0.4-0.2-0.9-0.3-1.4-0.4
		l0,0v-2.9l0-0.1c0-0.1,0-0.1,0-0.2c-0.1-0.1-0.2-0.2-0.3-0.3c-0.1,0-0.1,0-0.2,0c-0.1,0-0.2,0-0.3-0.1c-0.9-0.1-1.7-0.2-2.6-0.2
		c-0.8,0-1.7,0.1-2.5,0.2l-0.1,0c-0.1,0-0.1,0-0.2,0c-0.1,0.1-0.3,0.2-0.3,0.4c0,0.1,0,0.1,0,0.2v2.9c-0.1,0-0.1,0-0.2,0
		c-0.1,0-0.1,0-0.2,0.1c-0.5,0.1-0.9,0.3-1.3,0.4c-0.4,0.2-0.8,0.3-1.2,0.5l0,0l-1.8-2.2l-0.1-0.1c-0.1,0-0.1-0.1-0.1-0.1
		c-0.1,0-0.2-0.1-0.2-0.1C31.8,16.1,31.8,16.1,31.7,16.1C31.7,16.1,31.7,16.1,31.7,16.1z M40.4,15c0.3,0,0.6,0,1,0
		c0.3,0,0.6,0.1,1,0.1l0.1,0v2.8l0,0.1c0,0.1,0,0.1,0,0.2c0.1,0.1,0.2,0.3,0.3,0.3c0.1,0,0.1,0,0.2,0c0,0,0.1,0,0.1,0
		c0.1,0,0.1,0,0.2,0.1c0.2,0,0.4,0.1,0.6,0.2c0.3,0.1,0.7,0.2,1,0.3c0.3,0.1,0.7,0.3,1,0.4c0.2,0.1,0.4,0.2,0.5,0.3l0.1,0
		c0.1,0,0.1,0,0.2,0c0.1,0,0.3,0,0.4-0.1c0.1,0,0.1-0.1,0.1-0.1l1.8-2.2c0.6,0.4,1.3,0.9,1.9,1.4c0.4,0.4,0.9,0.8,1.3,1.2l0,0
		l-1.8,2.2l0,0.1c0,0.1,0,0.1-0.1,0.1c0,0.2,0,0.3,0.1,0.5c0,0.1,0.1,0.1,0.1,0.2c0,0,0,0.1,0.1,0.1c0.1,0.1,0.1,0.1,0.1,0.2
		c0.1,0.2,0.2,0.3,0.3,0.5c0.2,0.3,0.4,0.6,0.5,0.9c0.2,0.3,0.3,0.6,0.5,0.9c0.1,0.2,0.2,0.4,0.2,0.5l0,0.1c0,0.1,0,0.1,0.1,0.1
		c0.1,0.1,0.2,0.2,0.4,0.2c0.1,0,0.1,0,0.2,0l2.8-0.5c0.2,0.7,0.4,1.5,0.5,2.2c0.1,0.6,0.2,1.2,0.2,1.8l0,0.1l-2.8,0.5l-0.1,0
		c-0.1,0-0.1,0-0.1,0.1c-0.1,0.1-0.2,0.2-0.3,0.4c0,0.1,0,0.1,0,0.2c0,0,0,0.1,0,0.1c0,0.1,0,0.1,0,0.2c0,0.2,0,0.4-0.1,0.6
		c0,0.4-0.1,0.7-0.2,1c-0.1,0.3-0.2,0.7-0.2,1c-0.1,0.2-0.1,0.4-0.2,0.6l0,0.1c0,0.1,0,0.1,0,0.2c0,0.1,0.1,0.3,0.2,0.4
		c0,0.1,0.1,0.1,0.1,0.1l2.4,1.4c-0.3,0.7-0.6,1.4-1,2.1c-0.3,0.5-0.6,1-1,1.5l0,0.1l-2.4-1.4l-0.1,0c-0.1,0-0.1,0-0.2,0
		c-0.2,0-0.3,0-0.4,0.1c0,0-0.1,0.1-0.1,0.1c0,0-0.1,0.1-0.1,0.1c-0.1,0.1-0.1,0.1-0.2,0.2c-0.1,0.1-0.3,0.3-0.4,0.4
		c-0.3,0.2-0.5,0.5-0.8,0.7c-0.3,0.2-0.6,0.4-0.9,0.6c-0.2,0.1-0.3,0.2-0.5,0.3l-0.1,0c-0.1,0-0.1,0.1-0.1,0.1
		c-0.1,0.1-0.1,0.2-0.1,0.4c0,0.1,0,0.1,0,0.2l1,2.7c-0.7,0.4-1.4,0.7-2.1,0.9c-0.6,0.2-1.1,0.4-1.7,0.5l-0.1,0l-1-2.7l0-0.1
		c0-0.1,0-0.1-0.1-0.1c-0.1-0.1-0.3-0.2-0.4-0.2c-0.1,0-0.1,0-0.2,0c0,0-0.1,0-0.1,0c-0.1,0-0.1,0-0.2,0c-0.2,0-0.4,0-0.6,0.1
		c-0.4,0-0.7,0-1.1,0c-0.4,0-0.7,0-1.1-0.1c-0.2,0-0.4,0-0.6-0.1l-0.1,0c-0.1,0-0.1,0-0.2,0c-0.1,0-0.2,0.1-0.3,0.2
		c0,0.1,0,0.1-0.1,0.1l-1,2.7c-0.8-0.2-1.5-0.4-2.2-0.7c-0.5-0.2-1.1-0.5-1.6-0.7l-0.1,0l1-2.7l0-0.1c0-0.1,0-0.1,0-0.2
		c0-0.2-0.1-0.3-0.2-0.4c0,0-0.1-0.1-0.2-0.1c0,0-0.1,0-0.1-0.1c-0.1-0.1-0.1-0.1-0.2-0.1c-0.2-0.1-0.3-0.2-0.5-0.3
		c-0.3-0.2-0.6-0.4-0.8-0.7c-0.3-0.2-0.5-0.5-0.8-0.7c-0.1-0.1-0.3-0.3-0.4-0.4l-0.1-0.1c-0.1,0-0.1-0.1-0.1-0.1
		c-0.1-0.1-0.3-0.1-0.4,0c-0.1,0-0.1,0-0.1,0.1l-2.4,1.4c-0.5-0.6-0.9-1.3-1.3-1.9c-0.3-0.5-0.5-1-0.8-1.6l0-0.1l2.4-1.4l0.1,0
		c0.1,0,0.1-0.1,0.1-0.1c0.1-0.1,0.1-0.3,0.1-0.5c0-0.1,0-0.1-0.1-0.2c0,0,0-0.1,0-0.1c0-0.1,0-0.1-0.1-0.2C28.1,34.3,28,34.1,28,34
		c-0.1-0.3-0.2-0.7-0.2-1s-0.1-0.7-0.1-1.1c0-0.2,0-0.4,0-0.6l0-0.1c0-0.1,0-0.1,0-0.2c-0.1-0.1-0.2-0.2-0.3-0.3c-0.1,0-0.1,0-0.2,0
		l-2.8-0.5c0-0.8,0.1-1.5,0.3-2.3c0.1-0.6,0.3-1.1,0.4-1.7l0-0.1l2.8,0.5l0.1,0c0.1,0,0.1,0,0.2,0c0.2,0,0.3-0.1,0.4-0.3
		c0-0.1,0.1-0.1,0.1-0.2c0,0,0-0.1,0-0.1c0-0.1,0-0.1,0.1-0.2c0.1-0.2,0.2-0.4,0.2-0.5c0.2-0.3,0.3-0.6,0.5-0.9
		c0.2-0.3,0.4-0.6,0.6-0.9c0.1-0.2,0.2-0.3,0.4-0.5l0-0.1c0-0.1,0-0.1,0.1-0.1c0-0.1,0-0.3,0-0.4c0-0.1,0-0.1-0.1-0.1l-1.8-2.2
		c0.5-0.6,1.1-1.1,1.7-1.6c0.5-0.4,0.9-0.7,1.4-1l0.1,0l1.8,2.2l0.1,0.1c0.1,0,0.1,0.1,0.1,0.1c0.1,0.1,0.3,0.1,0.5,0
		c0.1,0,0.1-0.1,0.2-0.1c0,0,0.1,0,0.1-0.1c0.1-0.1,0.1-0.1,0.2-0.1c0.2-0.1,0.4-0.2,0.5-0.2c0.3-0.1,0.7-0.3,1-0.4
		c0.3-0.1,0.7-0.2,1-0.3c0.2,0,0.4-0.1,0.6-0.1l0.1,0c0.1,0,0.1,0,0.1-0.1c0.1-0.1,0.2-0.2,0.2-0.3c0-0.1,0-0.1,0-0.2v-2.8
		c0.6-0.1,1.3-0.1,1.9-0.1C40.2,15,40.3,15,40.4,15z M40.2,23.1c-0.4,0-0.7,0-1.1,0.1c-0.7,0.1-1.4,0.3-2.1,0.6
		c-0.8,0.4-1.5,0.9-2.2,1.5c-0.6,0.6-1.1,1.3-1.5,2.1c-0.3,0.7-0.6,1.4-0.7,2.1c-0.1,0.8-0.2,1.6,0,2.5c0.1,0.8,0.3,1.6,0.7,2.3
		c0.4,0.8,1,1.6,1.6,2.3c0.7,0.7,1.5,1.2,2.4,1.6c0.9,0.4,1.9,0.6,2.9,0.6c1,0,2-0.2,2.9-0.6c0.9-0.4,1.7-0.9,2.4-1.6
		c0.7-0.6,1.2-1.4,1.6-2.3c0.3-0.7,0.6-1.5,0.7-2.3c0.1-0.8,0.1-1.7,0-2.5c-0.1-0.7-0.4-1.4-0.7-2.1c-0.4-0.8-0.9-1.5-1.5-2.1
		c-0.6-0.6-1.4-1.1-2.2-1.5c-0.7-0.3-1.4-0.5-2.1-0.6c-0.4-0.1-0.7-0.1-1.1-0.1C40.3,23.1,40.3,23.1,40.2,23.1z M40.4,24.3
		c0.3,0,0.6,0,0.9,0.1c0.6,0.1,1.2,0.3,1.8,0.5c0.7,0.3,1.3,0.7,1.8,1.2c0.5,0.5,1,1.1,1.3,1.8c0.3,0.6,0.5,1.2,0.6,1.8
		c0.1,0.7,0.2,1.5,0.1,2.2c-0.1,0.7-0.3,1.3-0.6,1.9c-0.3,0.7-0.8,1.4-1.4,1.9c-0.6,0.6-1.3,1-2.1,1.3c-0.8,0.3-1.6,0.5-2.5,0.5
		c-0.9,0-1.7-0.2-2.5-0.5c-0.8-0.3-1.5-0.8-2.1-1.3c-0.6-0.6-1.1-1.2-1.4-1.9c-0.3-0.6-0.5-1.3-0.6-1.9c-0.1-0.7-0.1-1.5,0.1-2.2
		c0.1-0.6,0.3-1.2,0.6-1.8c0.3-0.7,0.8-1.3,1.3-1.8c0.5-0.5,1.1-0.9,1.8-1.2c0.6-0.3,1.2-0.4,1.8-0.5c0.3,0,0.6-0.1,0.9-0.1
		C40.3,24.3,40.3,24.3,40.4,24.3z"/>
</g>
</svg>
