<?xml version="1.0" encoding="utf-8"?>
<!-- Generator: Adobe Illustrator 19.2.1, SVG Export Plug-In . SVG Version: 6.00 Build 0)  -->
<svg version="1.1" id="Layer_1" xmlns="http://www.w3.org/2000/svg" xmlns:xlink="http://www.w3.org/1999/xlink" x="0px" y="0px"
	 viewBox="0 0 93.9 79" style="enable-background:new 0 0 93.9 79;" xml:space="preserve">
<title>Asset 15</title>
<g>
	<g>
		<path d="M46.3,17.2c4.7,0,8.6-3.8,8.6-8.6S51.1,0,46.3,0s-8.6,3.8-8.6,8.6C37.7,13.3,41.6,17.2,46.3,17.2z M46.3,4
			c2.5,0,4.6,2.1,4.6,4.6s-2.1,4.6-4.6,4.6s-4.6-2.1-4.6-4.6l0,0C41.7,6.1,43.8,4,46.3,4z"/>
		<circle cx="17.7" cy="45.7" r="2.2"/>
		<path d="M37.3,27.4c-0.9,0.6-1.2,1.8-0.6,2.8c0.6,0.9,1.7,1.2,2.6,0.7c0.3-0.1,6.6-3.7,13,0c1,0.5,2.2,0.1,2.7-0.8
			c0.5-0.9,0.2-2.1-0.7-2.6C45.9,22.5,37.7,27.2,37.3,27.4z"/>
		<path d="M92.7,52.5c-1-0.4-2.2,0-2.6,1.1c-0.5,1-1.6,1.6-2.7,1.4c0.3-0.6,0.6-1.3,0.8-2c1.4-4.3,0-6.5-1-7.3
			c-1.5-1.3-3.6-1.5-5.4-0.7c-1.9,0.8-3.1,2.7-3.1,4.7c0,1.9,0.7,3.8,1.9,5.3h-0.4c-1.9-0.2-3.4-1.6-3.5-2.7
			c0.1-1.5,0.3-14.9-8.4-24.1c-5.2-5.5-12.6-8.3-21.8-8.3c-0.5,0-10.6-0.1-17.7,4.9c-1.6-1-4.6-2.2-9.5-2.2H11c-1.1,0-2,0.9-2,2v3.2
			c0,0.2,0,0.4,0.1,0.6c0.1,0.5,1.5,4.7,3.5,6.6c0.3,0.2,0.5,0.6,0.4,1c-0.9,1.1-3.7,4.5-4.7,7.2c-0.4,1.2-3,2.7-4.8,3.5H2
			c-1.1,0-2,0.8-2,1.9c0,0.9-0.2,9.3,3.3,13c1.1,1.2,2.6,1.8,4.2,1.8c4.2,0,5.6,0.8,5.8,0.9l0,0c1.9,1.8,4.2,3.3,6.6,4.2
			c-0.1,3.3-0.6,6.4-1.2,7c-0.8,0.8-0.8,2,0,2.8c0.4,0.4,0.9,0.6,1.4,0.6h12.7c0.6,0,1.1-0.2,1.5-0.7c1.1-1.3,1.9-2.8,2.3-4.3h14.2
			v3c0,1.1,0.9,2,2,2h10.9c0.6,0,1.1-0.2,1.5-0.6c1-1.1,10-10.8,10-17.6c0-1.1-0.9-2-2-2s-2,0.9-2,2c0,4.3-5.6,11.3-8.3,14.4h-8.1
			v-3c0-1.1-0.9-2-2-2H35c-1.1,0-2,0.9-2,2c-0.1,1.1-0.5,2.1-1.1,3h-8.6c0.6-2.7,0.8-5.4,0.7-8.1c0-1.1-0.9-2-2-2
			c-1.4,0-4.3-2.1-5.8-3.5c-0.7-0.7-2.8-2-8.6-2c-0.5,0-1-0.2-1.3-0.6c-1.5-1.5-2.1-5.2-2.2-8.2c0.2,0,0.5-0.1,0.7-0.1
			c1-0.4,6.2-2.5,7.4-6c0.7-2,3.3-5.1,4.2-6.2c0.1-0.1,0.2-0.3,0.3-0.4c0.9-2,0.4-4.3-1.2-5.8c-1.1-1.4-1.9-3-2.4-4.7v-0.9h6.1
			c5.8,0,8,2.1,8,2.1c0.7,0.8,1.9,0.9,2.8,0.2c6-5.1,16.3-4.9,16.4-5c8.1,0,14.5,2.4,19,7.1c7.9,8.3,7.4,21.1,7.3,21.3s0,0.1,0,0.2
			c0.1,3.2,3.2,6,7,6.5c1.6,0.2,3.3-0.1,4.7-0.8c1.1,0.6,2.4,0.9,3.6,0.9c2.6,0,4.8-1.6,5.9-3.9C94.2,54.2,93.7,53,92.7,52.5z
			 M84.4,51.8c-0.1,0.4-0.2,0.7-0.4,1.1c-0.8-0.9-1.2-2-1.3-3.1c0-0.5,0.3-0.9,0.8-1.1c0.2-0.1,0.4-0.1,0.6-0.1c0.2,0,0.3,0,0.4,0.1
			C84.8,48.9,85,49.8,84.4,51.8L84.4,51.8z"/>
	</g>
</g>
</svg>
